<svg width="1109" height="1109" viewBox="0 0 1109 1109" fill="none" xmlns="http://www.w3.org/2000/svg">
<path d="M452.284 341.23C640.741 341.23 793.516 494.005 793.516 682.462C793.515 870.918 640.741 1023.69 452.284 1023.69C263.828 1023.69 111.054 870.918 111.054 682.462C111.054 494.005 263.828 341.231 452.284 341.23ZM401.1 545.97C335.14 545.97 281.669 599.441 281.669 665.4C281.669 731.36 335.14 784.831 401.1 784.831C467.059 784.831 520.531 731.36 520.531 665.4C520.531 599.441 467.059 545.97 401.1 545.97Z" fill="#B567AE"/>
<path d="M554.654 688L684.5 100L779.907 349.5L886 167.5L919 308L984.5 253" stroke="#B567AE" stroke-width="68.2462" stroke-linecap="round" stroke-linejoin="round"/>
<path d="M642 853L778.492 989.492" stroke="#B567AE" stroke-width="68.2462" stroke-linecap="round"/>
</svg>
